<svg width="1440" height="579" viewBox="0 0 1440 579" fill="none" xmlns="http://www.w3.org/2000/svg">
<g clip-path="url(#clip0_1185_1754)">
<mask id="path-1-inside-1_1185_1754" fill="white">
<path d="M0 0H1440V578.89H0V0Z"/>
</mask>
<path d="M0 0H1440V578.89H0V0Z" fill="#0162E5"/>
<path opacity="0.03" fill-rule="evenodd" clip-rule="evenodd" d="M-75 -21H1440V1299H-75V-21ZM-72.6328 -18.6429H112.008V165.214H-72.6328V-18.6429ZM116.742 -18.6429H301.383V165.214H116.742V-18.6429ZM490.758 -18.6429H306.117V165.214H490.758V-18.6429ZM495.492 -18.6429H680.133V165.214H495.492V-18.6429ZM869.508 -18.6429H684.867V165.214H869.508V-18.6429ZM874.242 -18.6429H1058.88V165.214H874.242V-18.6429ZM1248.26 -18.6429H1063.62V165.214H1248.26V-18.6429ZM1252.99 -18.6429H1437.63V165.214H1252.99V-18.6429ZM112.008 169.929H-72.6328V353.786H112.008V169.929ZM116.742 169.929H301.383V353.786H116.742V169.929ZM490.758 169.929H306.117V353.786H490.758V169.929ZM495.492 169.929H680.133V353.786H495.492V169.929ZM869.508 169.929H684.867V353.786H869.508V169.929ZM874.242 169.929H1058.88V353.786H874.242V169.929ZM1248.26 169.929H1063.62V353.786H1248.26V169.929ZM1252.99 169.929H1437.63V353.786H1252.99V169.929ZM112.008 358.5H-72.6328V542.357H112.008V358.5ZM116.742 358.5H301.383V542.357H116.742V358.5ZM490.758 358.5H306.117V542.357H490.758V358.5ZM495.492 358.5H680.133V542.357H495.492V358.5ZM869.508 358.5H684.867V542.357H869.508V358.5ZM874.242 358.5H1058.88V542.357H874.242V358.5ZM1248.26 358.5H1063.62V542.357H1248.26V358.5ZM1252.99 358.5H1437.63V542.357H1252.99V358.5ZM112.008 547.071H-72.6328V730.929H112.008V547.071ZM116.742 547.071H301.383V730.929H116.742V547.071ZM490.758 547.071H306.117V730.929H490.758V547.071ZM495.492 547.071H680.133V730.929H495.492V547.071ZM869.508 547.071H684.867V730.929H869.508V547.071ZM874.242 547.071H1058.88V730.929H874.242V547.071ZM1248.26 547.071H1063.62V730.929H1248.26V547.071ZM1252.99 547.071H1437.63V730.929H1252.99V547.071ZM112.008 735.643H-72.6328V919.5H112.008V735.643ZM116.742 735.643H301.383V919.5H116.742V735.643ZM490.758 735.643H306.117V919.5H490.758V735.643ZM495.492 735.643H680.133V919.5H495.492V735.643ZM869.508 735.643H684.867V919.5H869.508V735.643ZM874.242 735.643H1058.88V919.5H874.242V735.643ZM1248.26 735.643H1063.62V919.5H1248.26V735.643ZM1252.99 735.643H1437.63V919.5H1252.99V735.643ZM112.008 924.214H-72.6328V1108.07H112.008V924.214ZM116.742 924.214H301.383V1108.07H116.742V924.214ZM490.758 924.214H306.117V1108.07H490.758V924.214ZM495.492 924.214H680.133V1108.07H495.492V924.214ZM869.508 924.214H684.867V1108.07H869.508V924.214ZM874.242 924.214H1058.88V1108.07H874.242V924.214ZM1248.26 924.214H1063.62V1108.07H1248.26V924.214ZM1252.99 924.214H1437.63V1108.07H1252.99V924.214ZM112.008 1112.79H-72.6328V1296.64H112.008V1112.79ZM116.742 1112.79H301.383V1296.64H116.742V1112.79ZM490.758 1112.79H306.117V1296.64H490.758V1112.79ZM495.492 1112.79H680.133V1296.64H495.492V1112.79ZM869.508 1112.79H684.867V1296.64H869.508V1112.79ZM874.242 1112.79H1058.88V1296.64H874.242V1112.79ZM1248.26 1112.79H1063.62V1296.64H1248.26V1112.79ZM1252.99 1112.79H1437.63V1296.64H1252.99V1112.79Z" fill="white"/>
<path d="M1064.21 31.052L1067.69 37.054L1074.62 37.0624L1068.62 40.5374L1068.61 47.4727L1065.14 41.4707L1058.2 41.4623L1064.2 37.9874L1064.21 31.052Z" fill="white"/>
<path fill-rule="evenodd" clip-rule="evenodd" d="M1107.35 41.7587L1098.78 26.9638L1098.76 44.0594L1083.97 52.6252L1101.06 52.6459L1109.63 67.4407L1109.63 64.4962L1110.05 65.2236L1110.66 64.8736L1109.63 63.1052L1109.65 50.3451L1120.69 43.9517L1122.73 43.9542L1122.73 43.2558L1121.89 43.2548L1124.44 41.7794L1107.35 41.7587ZM1121.89 43.2548L1119.89 43.2523L1119.88 43.9508L1120.69 43.9517L1121.89 43.2548ZM1109.63 63.1052L1109.23 62.4078L1108.62 62.7578L1109.63 64.4962L1109.63 63.1052ZM1102.06 29.6783L1102.04 29.6881L1102.04 29.8709L1101.73 29.8705L1101.46 30.0282L1101.37 29.8701L1101.35 29.87L1101.35 28.4454L1102.06 29.6783ZM1103.49 32.1441L1104.92 34.6099L1104.31 34.9599L1102.88 32.4941L1103.49 32.1441ZM1106.34 37.0757L1107.77 39.5415L1107.17 39.8915L1105.74 37.4257L1106.34 37.0757ZM1109.2 42.0074L1109.91 43.2403L1111.34 43.242L1111.34 43.9404L1109.51 43.9382L1108.6 42.3573L1109.2 42.0074ZM1114.19 43.2454L1117.04 43.2489L1117.04 43.9473L1114.19 43.9438L1114.19 43.2454ZM1125.58 43.2788L1125.58 43.2592L1127.01 43.261L1125.78 43.9748L1125.77 43.9579L1125.58 43.9577L1125.58 43.6428L1125.43 43.3704L1125.58 43.2788ZM1123.31 45.4024L1120.84 46.83L1120.49 46.2256L1122.96 44.798L1123.31 45.4024ZM1118.38 48.2576L1115.91 49.6853L1115.56 49.0809L1118.03 47.6532L1118.38 48.2576ZM1113.45 51.1129L1112.21 51.8267L1112.21 53.2513L1111.51 53.2505L1111.52 51.4238L1113.1 50.5085L1113.45 51.1129ZM1112.21 56.1006L1112.21 58.9499L1111.51 58.949L1111.51 56.0998L1112.21 56.1006ZM1112.2 61.7991L1112.2 64.6484L1111.5 64.6475L1111.5 61.7983L1112.2 61.7991ZM1112.18 67.4976L1112.2 67.4977L1112.19 68.9223L1111.48 67.6894L1111.5 67.6796L1111.5 67.4968L1111.81 67.4972L1112.08 67.3394L1112.18 67.4976ZM1107.2 60.292L1105.77 57.8262L1106.37 57.4762L1107.8 59.942L1107.2 60.292ZM1104.34 55.3603L1103.63 54.1274L1102.2 54.1257L1102.2 53.4273L1104.03 53.4295L1104.95 55.0104L1104.34 55.3603ZM1099.35 54.1223L1096.5 54.1188L1096.51 53.4204L1099.35 53.4238L1099.35 54.1223ZM1093.66 54.1154L1090.81 54.1119L1090.81 53.4135L1093.66 53.4169L1093.66 54.1154ZM1087.96 54.0889L1087.96 54.1084L1086.53 54.1067L1087.76 53.3929L1087.77 53.4098L1087.96 53.41L1087.96 53.7249L1088.11 53.9973L1087.96 54.0889ZM1090.23 51.9653L1092.7 50.5377L1093.05 51.1421L1090.58 52.5697L1090.23 51.9653ZM1095.16 49.11L1097.63 47.6824L1097.98 48.2868L1095.51 49.7145L1095.16 49.11ZM1100.09 46.2548L1101.33 45.541L1101.33 44.1164L1102.03 44.1172L1102.02 45.9439L1100.44 46.8592L1100.09 46.2548ZM1101.33 41.2671L1101.34 38.4178L1102.03 38.4187L1102.03 41.2679L1101.33 41.2671ZM1101.34 35.5686L1101.34 32.7193L1102.04 32.7201L1102.04 35.5694L1101.34 35.5686Z" fill="white"/>
<path d="M1075.29 69.3337L1077.29 72.6956L1077.29 72.6965C1077.05 72.8374 1076.97 73.1441 1077.11 73.3815L1078.36 75.4936L1078.51 75.7403L1078.8 75.7381L1081.34 75.7159C1081.62 75.7135 1081.84 75.4872 1081.84 75.2111L1081.84 75.2101L1085.92 75.175L1085.92 75.1748C1085.92 75.4509 1086.15 75.6728 1086.43 75.6704L1087.03 75.6651L1086.51 75.9647C1086.27 76.1005 1086.18 76.4054 1086.31 76.6456L1082.76 78.6578C1082.62 78.4175 1082.32 78.3325 1082.08 78.4684L1079.86 79.7206L1079.61 79.8625L1079.61 80.1496L1079.58 82.6049C1079.58 82.8808 1079.8 83.1071 1080.08 83.1104L1080.03 87.0193C1079.75 87.0168 1079.53 87.2379 1079.53 87.5134L1079.52 88.1859L1079.17 87.6075C1079.03 87.3703 1078.73 87.2915 1078.49 87.4321L1076.49 84.0701C1076.73 83.9294 1076.81 83.6224 1076.67 83.3849L1075.42 81.2729L1075.27 81.0261L1074.98 81.0284L1072.44 81.0505L1072.34 81.0624C1072.11 81.1111 1071.94 81.3141 1071.94 81.5556L1067.86 81.5907C1067.86 81.315 1067.63 81.0936 1067.35 81.0961L1066.75 81.1016L1067.28 80.8018C1067.49 80.6829 1067.58 80.4344 1067.51 80.2132L1067.47 80.1201L1071.02 78.1079L1071.02 78.1086C1071.14 78.3189 1071.39 78.4097 1071.61 78.3382L1071.7 78.298L1073.92 77.0458L1074.17 76.904L1074.17 76.6168L1074.2 74.1615C1074.2 73.8856 1073.98 73.6593 1073.71 73.656L1073.7 73.6553L1073.75 69.7464C1073.99 69.7492 1074.2 69.5804 1074.24 69.3531L1074.26 69.253L1074.26 68.5796L1074.61 69.159C1074.75 69.3959 1075.05 69.4738 1075.29 69.3337Z" stroke="white" stroke-linecap="round" stroke-dasharray="4 4"/>
<path d="M1304.06 396.405C1304.06 396.405 1316.15 403.002 1330.32 398.598C1344.49 394.194 1340.04 414.356 1348.68 416.716C1357.32 419.075 1363.8 412.722 1372.44 415.082C1381.08 417.442 1383.43 426.207 1392.07 428.566C1400.71 430.926 1402.78 418.389 1417.09 422.3C1431.41 426.211 1425.27 433.923 1436.86 439.877" stroke="white" stroke-opacity="0.5" stroke-width="2" stroke-linecap="round" stroke-dasharray="2 10"/>
<path d="M1323.74 339.304C1323.74 339.304 1324.21 328.772 1330.88 326.871C1337.55 324.97 1343.7 333.616 1350.37 331.715C1357.04 329.813 1357.7 319.225 1364.37 317.324C1371.04 315.423 1377.19 324.069 1383.86 322.167C1390.53 320.266 1386.81 310.927 1397.87 307.777C1408.92 304.626 1419.86 308.075 1419.86 308.075" stroke="white" stroke-opacity="0.5" stroke-width="4" stroke-linecap="round"/>
<path opacity="0.7" d="M1575.06 -353.953L1809.36 202.365L1271.22 167.642L1575.06 -353.953Z" fill="#6B4898"/>
<path opacity="0.7" d="M328.093 714.002L-167.633 795.134L-34.6695 366.539L328.093 714.002Z" fill="#01CBBD"/>
<g opacity="0.7">
<path d="M-35 -207C-153.18 -207 -249 -112.299 -249 4.50001C-249 121.299 -153.18 216 -35 216C83.1798 216 179 121.299 179 4.50001C179 -112.299 83.1798 -207 -35 -207ZM-35 109.459C-93.6341 109.459 -141.184 62.4649 -141.184 4.51583C-141.184 -53.4333 -93.6341 -100.412 -35 -100.412C23.6341 -100.412 71.1683 -53.4491 71.1683 4.51583C71.1683 62.4807 23.6501 109.459 -35 109.459Z" fill="#FBB934"/>
</g>
<rect opacity="0.7" x="1170" y="485" width="294" height="189" fill="#FF8096"/>
<path d="M1355.01 -78.1079C1355.73 -78.4125 1356.45 -78.7099 1357.17 -79H1440.83C1441.55 -78.7099 1442.27 -78.4125 1442.99 -78.1079H1355.01Z" fill="white" fill-opacity="0.5"/>
<path d="M1338.18 -69.1867C1338.64 -69.4875 1339.11 -69.7848 1339.58 -70.0788H1458.42C1458.89 -69.7848 1459.36 -69.4875 1459.82 -69.1867H1338.18Z" fill="white" fill-opacity="0.5"/>
<path d="M1326.17 -60.2656C1326.52 -60.5651 1326.87 -60.8624 1327.23 -61.1577H1470.77C1471.13 -60.8624 1471.48 -60.5651 1471.83 -60.2656H1326.17Z" fill="white" fill-opacity="0.5"/>
<path d="M1316.84 -51.3444C1317.12 -51.6433 1317.4 -51.9407 1317.68 -52.2365H1480.32C1480.6 -51.9407 1480.88 -51.6433 1481.16 -51.3444H1316.84Z" fill="white" fill-opacity="0.5"/>
<path d="M1309.35 -42.4232C1309.57 -42.7218 1309.8 -43.0191 1310.03 -43.3154H1487.97C1488.2 -43.0191 1488.43 -42.7218 1488.65 -42.4232H1309.35Z" fill="white" fill-opacity="0.5"/>
<path d="M1303.27 -33.5021C1303.45 -33.8004 1303.63 -34.0977 1303.82 -34.3942H1494.18C1494.37 -34.0977 1494.55 -33.8004 1494.73 -33.5021H1303.27Z" fill="white" fill-opacity="0.5"/>
<path d="M1298.35 -24.5809C1298.49 -24.879 1298.64 -25.1764 1298.79 -25.473H1499.21C1499.36 -25.1764 1499.51 -24.879 1499.65 -24.5809H1298.35Z" fill="white" fill-opacity="0.5"/>
<path d="M1294.42 -15.6598C1294.54 -15.9577 1294.66 -16.2551 1294.77 -16.5519H1503.23C1503.34 -16.2551 1503.46 -15.9577 1503.58 -15.6598H1294.42Z" fill="white" fill-opacity="0.5"/>
<path d="M1291.4 -6.73859C1291.48 -7.03648 1291.57 -7.33385 1291.66 -7.6307H1506.34C1506.43 -7.33385 1506.52 -7.03648 1506.6 -6.73859H1291.4Z" fill="white" fill-opacity="0.5"/>
<path d="M1289.19 2.18257C1289.25 1.88477 1289.31 1.5874 1289.37 1.29046H1508.63C1508.69 1.5874 1508.75 1.88477 1508.81 2.18257H1289.19Z" fill="white" fill-opacity="0.5"/>
<path d="M1287.74 11.1037C1287.78 10.806 1287.81 10.5086 1287.85 10.2116H1510.15C1510.19 10.5086 1510.22 10.806 1510.26 11.1037H1287.74Z" fill="white" fill-opacity="0.5"/>
<path d="M1287.03 20.0249C1287.04 19.7272 1287.06 19.4298 1287.07 19.1328H1510.93C1510.94 19.4298 1510.96 19.7272 1510.97 20.0249H1287.03Z" fill="white" fill-opacity="0.5"/>
<path d="M1287.03 28.9461C1287.02 28.649 1287.01 28.3516 1287 28.0539H1511C1510.99 28.3516 1510.98 28.649 1510.97 28.9461H1287.03Z" fill="white" fill-opacity="0.5"/>
<path d="M1287.74 37.8672C1287.71 37.5702 1287.67 37.2728 1287.64 36.9751H1510.36C1510.33 37.2728 1510.29 37.5702 1510.26 37.8672H1287.74Z" fill="white" fill-opacity="0.5"/>
<path d="M1289.19 46.7884C1289.12 46.4914 1289.07 46.1941 1289.01 45.8963H1508.99C1508.93 46.1941 1508.88 46.4914 1508.81 46.7884H1289.19Z" fill="white" fill-opacity="0.5"/>
<path d="M1291.4 55.7095C1291.31 55.4127 1291.22 55.1153 1291.14 54.8174H1506.86C1506.78 55.1153 1506.69 55.4127 1506.6 55.7095H1291.4Z" fill="white" fill-opacity="0.5"/>
<path d="M1294.42 64.6307C1294.31 64.334 1294.2 64.0366 1294.08 63.7386H1503.92C1503.8 64.0366 1503.69 64.334 1503.58 64.6307H1294.42Z" fill="white" fill-opacity="0.5"/>
<path d="M1298.35 73.5519C1298.2 73.2552 1298.05 72.9579 1297.91 72.6598H1500.09C1499.95 72.9579 1499.8 73.2552 1499.65 73.5519H1298.35Z" fill="white" fill-opacity="0.5"/>
<path d="M1303.27 82.473C1303.08 82.1766 1302.9 81.8792 1302.73 81.5809H1495.27C1495.1 81.8792 1494.92 82.1766 1494.73 82.473H1303.27Z" fill="white" fill-opacity="0.5"/>
<path d="M1309.35 91.3942C1309.12 91.098 1308.9 90.8006 1308.68 90.5021H1489.32C1489.1 90.8006 1488.88 91.098 1488.65 91.3942H1309.35Z" fill="white" fill-opacity="0.5"/>
<path d="M1316.84 100.315C1316.56 100.019 1316.29 99.7221 1316.02 99.4232H1481.98C1481.71 99.7221 1481.44 100.019 1481.16 100.315H1316.84Z" fill="white" fill-opacity="0.5"/>
<path d="M1326.17 109.237C1325.82 108.941 1325.48 108.644 1325.13 108.344H1472.87C1472.52 108.644 1472.18 108.941 1471.83 109.237H1326.17Z" fill="white" fill-opacity="0.5"/>
<path d="M1338.18 118.158C1337.72 117.864 1337.26 117.566 1336.81 117.266H1461.19C1460.74 117.566 1460.28 117.864 1459.82 118.158H1338.18Z" fill="white" fill-opacity="0.5"/>
<path d="M1355.01 127.079C1354.33 126.788 1353.65 126.491 1352.97 126.187H1445.03C1444.35 126.491 1443.67 126.788 1442.99 127.079H1355.01Z" fill="white" fill-opacity="0.5"/>
<path d="M1413.24 135.108C1408.58 135.697 1403.82 136 1399 136C1394.18 136 1389.42 135.697 1384.76 135.108H1413.24Z" fill="white" fill-opacity="0.5"/>
<path d="M232.46 27.4317L221.258 51.0932L206.368 29.561L232.46 27.4317Z" fill="white" fill-opacity="0.5"/>
<path d="M221.177 50.0969L207.271 29.9885L231.638 28.0001L221.177 50.0969Z" stroke="white" stroke-opacity="0.5"/>
<path d="M237.462 77.1813L275 63.434L245.152 38.5006L244.676 40.8952L270.829 62.7415L237.938 74.7867L237.462 77.1813Z" fill="white" fill-opacity="0.5"/>
<path d="M238.499 71.9683L265.919 61.9265L244.116 43.7135L238.499 71.9683Z" fill="white" fill-opacity="0.5"/>
<path d="M238.127 76.4058L238.375 75.1588L271 63.2114L271.814 62.9134L271.149 62.3583L245.224 40.701L245.479 39.423L274.015 63.2614L238.127 76.4058ZM239.163 71.1928L244.442 44.636L264.933 61.7541L239.163 71.1928Z" stroke="white" stroke-opacity="0.5"/>
<path d="M217.185 79.3513L232.029 91.9553L213.691 98.5085L217.185 79.3513Z" fill="white" fill-opacity="0.5"/>
<path d="M227.11 91.0583L216.927 94.6973L218.866 84.0589L227.11 91.0583Z" stroke="white" stroke-opacity="0.5" stroke-width="5"/>
</g>
<path d="M1440 578.89V577.89H0V578.89V579.89H1440V578.89Z" fill="black" fill-opacity="0.5" mask="url(#path-1-inside-1_1185_1754)"/>
<defs>
<clipPath id="clip0_1185_1754">
<path d="M0 0H1440V578.89H0V0Z" fill="white"/>
</clipPath>
</defs>
</svg>